<?xml version="1.0" encoding="UTF-8"?>
<svg id="Layer_1" data-name="Layer 1" xmlns="http://www.w3.org/2000/svg" viewBox="0 0 856.52 1920">
  <defs>
    <style>
      .cls-1 {
        fill: #3881b0;
      }

      .cls-2 {
        fill: none;
        opacity: .7;
        stroke: #9ccdeb;
        stroke-miterlimit: 10;
        stroke-width: .3px;
      }
    </style>
  </defs>
  <path class="cls-1" d="M810.81,107.22v1707.41c0,52.28-25.61,60.56-57.21,60.56H99.32c-31.6,0-57.21-13.77-57.21-66.05V110.98c0-52.28,25.61-66.17,57.21-66.17h654.28c31.6,0,57.21,10.12,57.21,62.4Z"/>
  <path class="cls-1" d="M713.38,1875.11l104.97.08c21.01.02,38.05-17,38.07-38.01l.1-144.16c.01-16.35-5.09-32.31-14.69-45.54-12.72-17.53-29.21-42.81-29.97-57.04-.99-18.58-.22-254.16.13-348.95.08-21.6-17.4-39.13-38.99-39.15l-59.13-.04c-12.53,0-22.69,10.14-22.7,22.66l-.45,627.46c0,12.53,10.14,22.69,22.66,22.7h0Z"/>
  <path class="cls-1" d="M143.14,44.89l-104.97-.08C17.16,44.8.12,61.82.1,82.83L0,226.99c-.01,16.35,5.09,32.31,14.69,45.54,12.72,17.53,29.21,42.81,29.97,57.04.99,18.58.22,254.16-.13,348.95-.08,21.6,17.4,39.13,38.99,39.15l59.13.04c12.53,0,22.69-10.14,22.7-22.66l.45-627.46c0-12.53-10.14-22.69-22.66-22.7h0Z"/>
  <line class="cls-2" x1="414.98" y1="44.81" x2="414.98" y2="1875.19"/>
  <line class="cls-2" x1="426.46" y1="44.81" x2="426.46" y2="1875.19"/>
  <line class="cls-2" x1="437.57" y1="44.81" x2="437.57" y2="1875.19"/>
</svg>